# xmcd CD database file
#
# Track frame offsets:
#	150
#	23333
#	50298
#	75191
#	109114
#	135188
#	159651
#	188034
#	227642
#
# Disc length: 3343 seconds
#
# Revision: 1
# Processed by: cddbd v1.5.2PL0 Copyright (c) Steve Scherf et al.
# Submitted via: CDex 1.70beta2
#
DISCID=560d0d09
DTITLE=Thomas Rueckert - Dust of doubt
DYEAR=2004
DGENRE=Jazz
TTITLE0=Bonsai killer
TTITLE1=Isolation day
TTITLE2=On a clear day
TTITLE3=XX
TTITLE4=I let a song go out of my heart
TTITLE5=Siddhi
TTITLE6=Milestones
TTITLE7=Strange Masquerade
TTITLE8=Dust of dubt
EXTD=YEAR: 2004
EXTT0=
EXTT1=
EXTT2=
EXTT3=
EXTT4=
EXTT5=
EXTT6=
EXTT7=
EXTT8=
PLAYORDER=
